<svg xmlns="http://www.w3.org/2000/svg" version="1.1" xmlns:xlink="http://www.w3.org/1999/xlink" xmlns:svgjs="http://svgjs.dev/svgjs" viewBox="0 0 800 800"><defs><linearGradient x1="50%" y1="0%" x2="50%" y2="100%" id="ffflurry-grad" gradientTransform="rotate(270)"><stop stop-color="hsl(316, 18%, 90%)" stop-opacity="1" offset="0%"></stop><stop stop-color="hsl(265, 55%, 30%)" stop-opacity="1" offset="45%"></stop><stop stop-color="hsl(119, 55%, 60%)" stop-opacity="1" offset="100%"></stop></linearGradient></defs><rect width="100%" height="100%" fill="hsl(316, 18%, 90%)"></rect><g fill="url(#ffflurry-grad)"><rect width="394" height="3" x="5" y="472.5" rx="1.5" transform="rotate(45, 202, 474)" opacity="0.33"></rect><rect width="605" height="3" x="420.5" y="85.5" rx="1.5" transform="rotate(45, 723, 87)" opacity="0.35"></rect><rect width="320" height="3" x="450" y="765.5" rx="1.5" transform="rotate(45, 610, 767)" opacity="0.42"></rect><rect width="472" height="3" x="293" y="668.5" rx="1.5" transform="rotate(45, 529, 670)" opacity="0.34"></rect><rect width="471" height="3" x="261.5" y="476.5" rx="1.5" transform="rotate(45, 497, 478)" opacity="0.33"></rect><rect width="168" height="3" x="628" y="476.5" rx="1.5" transform="rotate(45, 712, 478)" opacity="0.48"></rect><rect width="93" height="3" x="433.5" y="579.5" rx="1.5" transform="rotate(45, 480, 581)" opacity="0.09"></rect><rect width="153" height="3" x="257.5" y="215.5" rx="1.5" transform="rotate(45, 334, 217)" opacity="0.31"></rect><rect width="414" height="3" x="-16" y="315.5" rx="1.5" transform="rotate(45, 191, 317)" opacity="0.68"></rect><rect width="293" height="3" x="192.5" y="28.5" rx="1.5" transform="rotate(45, 339, 30)" opacity="0.43"></rect><rect width="333" height="3" x="461.5" y="584.5" rx="1.5" transform="rotate(45, 628, 586)" opacity="0.63"></rect><rect width="123" height="3" x="-3.5" y="628.5" rx="1.5" transform="rotate(45, 58, 630)" opacity="0.45"></rect><rect width="300" height="3" x="-76" y="246.5" rx="1.5" transform="rotate(45, 74, 248)" opacity="0.34"></rect><rect width="295" height="3" x="613.5" y="301.5" rx="1.5" transform="rotate(45, 761, 303)" opacity="0.73"></rect><rect width="400" height="3" x="228" y="754.5" rx="1.5" transform="rotate(45, 428, 756)" opacity="0.44"></rect><rect width="444" height="3" x="33" y="687.5" rx="1.5" transform="rotate(45, 255, 689)" opacity="0.82"></rect><rect width="367" height="3" x="153.5" y="707.5" rx="1.5" transform="rotate(45, 337, 709)" opacity="0.92"></rect><rect width="73" height="3" x="132.5" y="739.5" rx="1.5" transform="rotate(45, 169, 741)" opacity="0.57"></rect><rect width="613" height="3" x="103.5" y="79.5" rx="1.5" transform="rotate(45, 410, 81)" opacity="0.17"></rect><rect width="279" height="3" x="514.5" y="378.5" rx="1.5" transform="rotate(45, 654, 380)" opacity="0.57"></rect><rect width="76" height="3" x="525" y="116.5" rx="1.5" transform="rotate(45, 563, 118)" opacity="0.64"></rect><rect width="388" height="3" x="526" y="220.5" rx="1.5" transform="rotate(45, 720, 222)" opacity="0.51"></rect><rect width="501" height="3" x="-69.5" y="595.5" rx="1.5" transform="rotate(45, 181, 597)" opacity="0.48"></rect><rect width="141" height="3" x="270.5" y="331.5" rx="1.5" transform="rotate(45, 341, 333)" opacity="0.85"></rect><rect width="183" height="3" x="1.5" y="52.5" rx="1.5" transform="rotate(45, 93, 54)" opacity="0.23"></rect><rect width="380" height="3" x="38" y="393.5" rx="1.5" transform="rotate(45, 228, 395)" opacity="0.85"></rect><rect width="142" height="3" x="315" y="528.5" rx="1.5" transform="rotate(45, 386, 530)" opacity="0.90"></rect><rect width="489" height="3" x="499.5" y="715.5" rx="1.5" transform="rotate(45, 744, 717)" opacity="0.27"></rect><rect width="111" height="3" x="465.5" y="191.5" rx="1.5" transform="rotate(45, 521, 193)" opacity="0.75"></rect><rect width="291" height="3" x="460.5" y="265.5" rx="1.5" transform="rotate(45, 606, 267)" opacity="0.15"></rect><rect width="328" height="3" x="99" y="60.5" rx="1.5" transform="rotate(45, 263, 62)" opacity="0.51"></rect><rect width="641" height="3" x="-248.5" y="387.5" rx="1.5" transform="rotate(45, 72, 389)" opacity="0.40"></rect><rect width="401" height="3" x="-3.5" y="115.5" rx="1.5" transform="rotate(45, 197, 117)" opacity="0.44"></rect><rect width="176" height="3" x="372" y="309.5" rx="1.5" transform="rotate(45, 460, 311)" opacity="0.77"></rect><rect width="510" height="3" x="346" y="467.5" rx="1.5" transform="rotate(45, 601, 469)" opacity="0.58"></rect><rect width="286" height="3" x="-61" y="720.5" rx="1.5" transform="rotate(45, 82, 722)" opacity="0.51"></rect><rect width="238" height="3" x="386" y="756.5" rx="1.5" transform="rotate(45, 505, 758)" opacity="0.51"></rect><rect width="480" height="3" x="-20" y="221.5" rx="1.5" transform="rotate(45, 220, 223)" opacity="0.11"></rect><rect width="91" height="3" x="-16.5" y="752.5" rx="1.5" transform="rotate(45, 29, 754)" opacity="0.98"></rect><rect width="335" height="3" x="239.5" y="655.5" rx="1.5" transform="rotate(45, 407, 657)" opacity="0.46"></rect><rect width="141" height="3" x="568.5" y="688.5" rx="1.5" transform="rotate(45, 639, 690)" opacity="0.72"></rect><rect width="163" height="3" x="247.5" y="775.5" rx="1.5" transform="rotate(45, 329, 777)" opacity="0.12"></rect><rect width="339" height="3" x="584.5" y="561.5" rx="1.5" transform="rotate(45, 754, 563)" opacity="0.53"></rect><rect width="268" height="3" x="226" y="428.5" rx="1.5" transform="rotate(45, 360, 430)" opacity="0.09"></rect><rect width="143" height="3" x="216.5" y="559.5" rx="1.5" transform="rotate(45, 288, 561)" opacity="0.73"></rect><rect width="87" height="3" x="385.5" y="199.5" rx="1.5" transform="rotate(45, 429, 201)" opacity="0.10"></rect><rect width="317" height="3" x="-49.5" y="531.5" rx="1.5" transform="rotate(45, 109, 533)" opacity="0.61"></rect><rect width="262" height="3" x="-96" y="503.5" rx="1.5" transform="rotate(45, 35, 505)" opacity="0.89"></rect><rect width="226" height="3" x="464" y="33.5" rx="1.5" transform="rotate(45, 577, 35)" opacity="0.87"></rect><rect width="176" height="3" x="-47" y="133.5" rx="1.5" transform="rotate(45, 41, 135)" opacity="0.19"></rect><rect width="154" height="3" x="671" y="383.5" rx="1.5" transform="rotate(45, 748, 385)" opacity="0.21"></rect><rect width="518" height="3" x="271" y="372.5" rx="1.5" transform="rotate(45, 530, 374)" opacity="0.77"></rect></g></svg>