<svg xmlns="http://www.w3.org/2000/svg" version="1.1" xmlns:xlink="http://www.w3.org/1999/xlink" xmlns:svgjs="http://svgjs.dev/svgjs" viewBox="0 0 800 800"><defs><linearGradient x1="50%" y1="0%" x2="50%" y2="100%" id="ffflurry-grad" gradientTransform="rotate(270)"><stop stop-color="hsl(238, 82%, 13%)" stop-opacity="1" offset="0%"></stop><stop stop-color="hsl(1.4, 100%, 67%)" stop-opacity="1" offset="45%"></stop><stop stop-color="hsl(167, 52%, 78%)" stop-opacity="1" offset="100%"></stop></linearGradient></defs><rect width="100%" height="100%" fill="hsl(238, 82%, 13%)"></rect><g fill="url(#ffflurry-grad)"><rect width="190" height="3" x="316" y="174.5" rx="1.5" transform="rotate(45, 411, 176)" opacity="0.11"></rect><rect width="288" height="3" x="326" y="518.5" rx="1.5" transform="rotate(45, 470, 520)" opacity="0.42"></rect><rect width="197" height="3" x="171.5" y="314.5" rx="1.5" transform="rotate(45, 270, 316)" opacity="0.33"></rect><rect width="330" height="3" x="353" y="379.5" rx="1.5" transform="rotate(45, 518, 381)" opacity="0.69"></rect><rect width="520" height="3" x="-219" y="58.5" rx="1.5" transform="rotate(45, 41, 60)" opacity="0.56"></rect><rect width="66" height="3" x="-1" y="200.5" rx="1.5" transform="rotate(45, 32, 202)" opacity="0.83"></rect><rect width="383" height="3" x="354.5" y="229.5" rx="1.5" transform="rotate(45, 546, 231)" opacity="0.59"></rect><rect width="298" height="3" x="119" y="120.5" rx="1.5" transform="rotate(45, 268, 122)" opacity="0.24"></rect><rect width="139" height="3" x="417.5" y="297.5" rx="1.5" transform="rotate(45, 487, 299)" opacity="0.49"></rect><rect width="352" height="3" x="-106" y="584.5" rx="1.5" transform="rotate(45, 70, 586)" opacity="0.15"></rect><rect width="303" height="3" x="-88.5" y="644.5" rx="1.5" transform="rotate(45, 63, 646)" opacity="0.21"></rect><rect width="394" height="3" x="-23" y="643.5" rx="1.5" transform="rotate(45, 174, 645)" opacity="0.35"></rect><rect width="109" height="3" x="538.5" y="345.5" rx="1.5" transform="rotate(45, 593, 347)" opacity="0.65"></rect><rect width="725" height="3" x="350.5" y="46.5" rx="1.5" transform="rotate(45, 713, 48)" opacity="0.27"></rect><rect width="378" height="3" x="-93" y="268.5" rx="1.5" transform="rotate(45, 96, 270)" opacity="0.80"></rect><rect width="85" height="3" x="459.5" y="151.5" rx="1.5" transform="rotate(45, 502, 153)" opacity="0.83"></rect><rect width="217" height="3" x="63.5" y="255.5" rx="1.5" transform="rotate(45, 172, 257)" opacity="0.53"></rect><rect width="501" height="3" x="357.5" y="96.5" rx="1.5" transform="rotate(45, 608, 98)" opacity="0.52"></rect><rect width="64" height="3" x="538" y="162.5" rx="1.5" transform="rotate(45, 570, 164)" opacity="0.52"></rect><rect width="74" height="3" x="167" y="183.5" rx="1.5" transform="rotate(45, 204, 185)" opacity="0.97"></rect><rect width="411" height="3" x="351.5" y="549.5" rx="1.5" transform="rotate(45, 557, 551)" opacity="0.39"></rect><rect width="102" height="3" x="72" y="518.5" rx="1.5" transform="rotate(45, 123, 520)" opacity="0.34"></rect><rect width="139" height="3" x="612.5" y="156.5" rx="1.5" transform="rotate(45, 682, 158)" opacity="0.60"></rect><rect width="179" height="3" x="674.5" y="381.5" rx="1.5" transform="rotate(45, 764, 383)" opacity="0.09"></rect><rect width="572" height="3" x="231" y="49.5" rx="1.5" transform="rotate(45, 517, 51)" opacity="0.24"></rect><rect width="214" height="3" x="440" y="465.5" rx="1.5" transform="rotate(45, 547, 467)" opacity="0.36"></rect><rect width="50" height="3" x="444" y="219.5" rx="1.5" transform="rotate(45, 469, 221)" opacity="0.73"></rect><rect width="382" height="3" x="319" y="648.5" rx="1.5" transform="rotate(45, 510, 650)" opacity="0.31"></rect><rect width="162" height="3" x="150" y="711.5" rx="1.5" transform="rotate(45, 231, 713)" opacity="0.76"></rect><rect width="373" height="3" x="148.5" y="680.5" rx="1.5" transform="rotate(45, 335, 682)" opacity="0.48"></rect><rect width="85" height="3" x="575.5" y="219.5" rx="1.5" transform="rotate(45, 618, 221)" opacity="0.49"></rect><rect width="155" height="3" x="318.5" y="505.5" rx="1.5" transform="rotate(45, 396, 507)" opacity="0.51"></rect><rect width="411" height="3" x="1.5" y="47.5" rx="1.5" transform="rotate(45, 207, 49)" opacity="0.60"></rect><rect width="137" height="3" x="695.5" y="184.5" rx="1.5" transform="rotate(45, 764, 186)" opacity="0.29"></rect><rect width="50" height="3" x="311" y="187.5" rx="1.5" transform="rotate(45, 336, 189)" opacity="0.90"></rect><rect width="471" height="3" x="-83.5" y="333.5" rx="1.5" transform="rotate(45, 152, 335)" opacity="0.32"></rect><rect width="124" height="3" x="139" y="385.5" rx="1.5" transform="rotate(45, 201, 387)" opacity="0.62"></rect><rect width="420" height="3" x="404" y="431.5" rx="1.5" transform="rotate(45, 614, 433)" opacity="0.22"></rect><rect width="218" height="3" x="516" y="730.5" rx="1.5" transform="rotate(45, 625, 732)" opacity="0.57"></rect><rect width="447" height="3" x="-196.5" y="417.5" rx="1.5" transform="rotate(45, 27, 419)" opacity="0.27"></rect><rect width="148" height="3" x="-47" y="691.5" rx="1.5" transform="rotate(45, 27, 693)" opacity="0.46"></rect><rect width="307" height="3" x="-117.5" y="512.5" rx="1.5" transform="rotate(45, 36, 514)" opacity="0.07"></rect><rect width="534" height="3" x="-64" y="463.5" rx="1.5" transform="rotate(45, 203, 465)" opacity="0.70"></rect><rect width="183" height="3" x="91.5" y="561.5" rx="1.5" transform="rotate(45, 183, 563)" opacity="0.65"></rect><rect width="109" height="3" x="-27.5" y="296.5" rx="1.5" transform="rotate(45, 27, 298)" opacity="0.50"></rect><rect width="674" height="3" x="287" y="614.5" rx="1.5" transform="rotate(45, 624, 616)" opacity="0.58"></rect><rect width="569" height="3" x="103.5" y="288.5" rx="1.5" transform="rotate(45, 388, 290)" opacity="0.09"></rect><rect width="533" height="3" x="58.5" y="477.5" rx="1.5" transform="rotate(45, 325, 479)" opacity="0.51"></rect><rect width="37" height="3" x="549.5" y="284.5" rx="1.5" transform="rotate(45, 568, 286)" opacity="0.66"></rect><rect width="579" height="3" x="453.5" y="734.5" rx="1.5" transform="rotate(45, 743, 736)" opacity="0.71"></rect><rect width="549" height="3" x="-205.5" y="355.5" rx="1.5" transform="rotate(45, 69, 357)" opacity="0.63"></rect><rect width="197" height="3" x="163.5" y="540.5" rx="1.5" transform="rotate(45, 262, 542)" opacity="0.50"></rect><rect width="363" height="3" x="148.5" y="598.5" rx="1.5" transform="rotate(45, 330, 600)" opacity="0.76"></rect><rect width="241" height="3" x="-16.5" y="432.5" rx="1.5" transform="rotate(45, 104, 434)" opacity="0.25"></rect><rect width="523" height="3" x="419.5" y="368.5" rx="1.5" transform="rotate(45, 681, 370)" opacity="0.89"></rect><rect width="229" height="3" x="175.5" y="35.5" rx="1.5" transform="rotate(45, 290, 37)" opacity="0.81"></rect><rect width="416" height="3" x="36" y="770.5" rx="1.5" transform="rotate(45, 244, 772)" opacity="0.14"></rect><rect width="388" height="3" x="-63" y="29.5" rx="1.5" transform="rotate(45, 131, 31)" opacity="0.97"></rect><rect width="273" height="3" x="563.5" y="493.5" rx="1.5" transform="rotate(45, 700, 495)" opacity="0.50"></rect><rect width="666" height="3" x="361" y="274.5" rx="1.5" transform="rotate(45, 694, 276)" opacity="0.31"></rect><rect width="381" height="3" x="167.5" y="754.5" rx="1.5" transform="rotate(45, 358, 756)" opacity="0.75"></rect><rect width="484" height="3" x="-196" y="758.5" rx="1.5" transform="rotate(45, 46, 760)" opacity="0.73"></rect><rect width="347" height="3" x="84.5" y="633.5" rx="1.5" transform="rotate(45, 258, 635)" opacity="0.39"></rect><rect width="238" height="3" x="12" y="705.5" rx="1.5" transform="rotate(45, 131, 707)" opacity="0.96"></rect><rect width="422" height="3" x="214" y="626.5" rx="1.5" transform="rotate(45, 425, 628)" opacity="0.90"></rect><rect width="450" height="3" x="-134" y="163.5" rx="1.5" transform="rotate(45, 91, 165)" opacity="0.18"></rect><rect width="378" height="3" x="-55" y="770.5" rx="1.5" transform="rotate(45, 134, 772)" opacity="0.94"></rect><rect width="180" height="3" x="284" y="378.5" rx="1.5" transform="rotate(45, 374, 380)" opacity="0.95"></rect><rect width="318" height="3" x="587" y="594.5" rx="1.5" transform="rotate(45, 746, 596)" opacity="0.62"></rect><rect width="130" height="3" x="316" y="565.5" rx="1.5" transform="rotate(45, 381, 567)" opacity="0.44"></rect><rect width="147" height="3" x="373.5" y="362.5" rx="1.5" transform="rotate(45, 447, 364)" opacity="0.89"></rect><rect width="135" height="3" x="208.5" y="240.5" rx="1.5" transform="rotate(45, 276, 242)" opacity="0.45"></rect><rect width="98" height="3" x="90" y="105.5" rx="1.5" transform="rotate(45, 139, 107)" opacity="0.17"></rect><rect width="224" height="3" x="184" y="397.5" rx="1.5" transform="rotate(45, 296, 399)" opacity="0.60"></rect><rect width="442" height="3" x="260" y="746.5" rx="1.5" transform="rotate(45, 481, 748)" opacity="0.79"></rect><rect width="270" height="3" x="308" y="437.5" rx="1.5" transform="rotate(45, 443, 439)" opacity="0.32"></rect><rect width="418" height="3" x="182" y="60.5" rx="1.5" transform="rotate(45, 391, 62)" opacity="0.58"></rect></g></svg>